<svg width="646" height="103" viewBox="0 0 646 103" fill="none" xmlns="http://www.w3.org/2000/svg">
<rect x="0.629272" y="0.0581665" width="645.315" height="102.228" rx="40" fill="#414141"/>
<mask id="path-2-outside-1_21_15" maskUnits="userSpaceOnUse" x="29.1877" y="14.0582" width="602" height="66" fill="black">
<rect fill="white" x="29.1877" y="14.0582" width="602" height="66"/>
<path d="M66.1877 75.0582V43.0582H74.1877V75.0582H66.1877ZM66.1877 35.0582V27.0582H74.1877V35.0582H66.1877ZM34.1877 75.0582V19.0582H66.1877V27.0582H42.1877V35.0582H66.1877V43.0582H42.1877V75.0582H34.1877ZM82.1877 67.0582V59.0582H90.1877V67.0582H82.1877ZM90.1877 75.0582V67.0582H114.188V59.0582H90.1877V51.0582H114.188V43.0582H122.188V75.0582H90.1877ZM90.1877 43.0582V35.0582H114.188V43.0582H90.1877ZM138.188 75.0582V43.0582H130.188V35.0582H138.188V27.0582H146.188V35.0582H162.188V43.0582H146.188V75.0582H138.188ZM146.188 27.0582V19.0582H162.188V27.0582H146.188ZM170.188 67.0582V59.0582H178.188V67.0582H170.188ZM178.188 75.0582V67.0582H202.188V59.0582H178.188V51.0582H202.188V43.0582H210.188V75.0582H178.188ZM178.188 43.0582V35.0582H202.188V43.0582H178.188ZM218.188 75.0582V19.0582H226.188V67.0582H258.188V75.0582H218.188ZM266.188 67.0582V35.0582H274.188V67.0582H266.188ZM274.188 75.0582V67.0582H298.188V35.0582H306.188V75.0582H274.188ZM322.188 75.0582V67.0582H346.188V75.0582H322.188ZM346.188 67.0582V59.0582H354.188V67.0582H346.188ZM314.188 67.0582V43.0582H322.188V67.0582H314.188ZM346.188 51.0582V43.0582H354.188V51.0582H346.188ZM322.188 43.0582V35.0582H346.188V43.0582H322.188ZM362.188 75.0582V59.0582H370.188V75.0582H362.188ZM386.188 75.0582V67.0582H410.188V75.0582H386.188ZM410.188 67.0582V59.0582H418.188V67.0582H410.188ZM378.188 67.0582V43.0582H386.188V67.0582H378.188ZM410.188 51.0582V43.0582H418.188V51.0582H410.188ZM386.188 43.0582V35.0582H410.188V43.0582H386.188ZM434.188 75.0582V67.0582H458.188V75.0582H434.188ZM426.188 67.0582V43.0582H434.188V67.0582H426.188ZM458.188 67.0582V43.0582H466.188V67.0582H458.188ZM434.188 43.0582V35.0582H458.188V43.0582H434.188ZM490.188 59.0582V43.0582H498.188V59.0582H490.188ZM506.188 75.0582V43.0582H514.188V75.0582H506.188ZM474.188 75.0582V35.0582H490.188V43.0582H482.188V75.0582H474.188ZM498.188 43.0582V35.0582H506.188V43.0582H498.188ZM522.188 75.0582V59.0582H530.188V75.0582H522.188ZM570.188 67.0582V43.0582H578.188V67.0582H570.188ZM554.188 43.0582V35.0582H570.188V43.0582H554.188ZM538.188 75.0582V19.0582H546.188V43.0582H554.188V51.0582H546.188V67.0582H570.188V75.0582H538.188ZM618.188 51.0582V43.0582H626.188V51.0582H618.188ZM586.188 75.0582V35.0582H594.188V43.0582H602.188V51.0582H594.188V75.0582H586.188ZM602.188 43.0582V35.0582H618.188V43.0582H602.188Z"/>
</mask>
<path d="M66.1877 75.0582V43.0582H74.1877V75.0582H66.1877ZM66.1877 35.0582V27.0582H74.1877V35.0582H66.1877ZM34.1877 75.0582V19.0582H66.1877V27.0582H42.1877V35.0582H66.1877V43.0582H42.1877V75.0582H34.1877ZM82.1877 67.0582V59.0582H90.1877V67.0582H82.1877ZM90.1877 75.0582V67.0582H114.188V59.0582H90.1877V51.0582H114.188V43.0582H122.188V75.0582H90.1877ZM90.1877 43.0582V35.0582H114.188V43.0582H90.1877ZM138.188 75.0582V43.0582H130.188V35.0582H138.188V27.0582H146.188V35.0582H162.188V43.0582H146.188V75.0582H138.188ZM146.188 27.0582V19.0582H162.188V27.0582H146.188ZM170.188 67.0582V59.0582H178.188V67.0582H170.188ZM178.188 75.0582V67.0582H202.188V59.0582H178.188V51.0582H202.188V43.0582H210.188V75.0582H178.188ZM178.188 43.0582V35.0582H202.188V43.0582H178.188ZM218.188 75.0582V19.0582H226.188V67.0582H258.188V75.0582H218.188ZM266.188 67.0582V35.0582H274.188V67.0582H266.188ZM274.188 75.0582V67.0582H298.188V35.0582H306.188V75.0582H274.188ZM322.188 75.0582V67.0582H346.188V75.0582H322.188ZM346.188 67.0582V59.0582H354.188V67.0582H346.188ZM314.188 67.0582V43.0582H322.188V67.0582H314.188ZM346.188 51.0582V43.0582H354.188V51.0582H346.188ZM322.188 43.0582V35.0582H346.188V43.0582H322.188ZM362.188 75.0582V59.0582H370.188V75.0582H362.188ZM386.188 75.0582V67.0582H410.188V75.0582H386.188ZM410.188 67.0582V59.0582H418.188V67.0582H410.188ZM378.188 67.0582V43.0582H386.188V67.0582H378.188ZM410.188 51.0582V43.0582H418.188V51.0582H410.188ZM386.188 43.0582V35.0582H410.188V43.0582H386.188ZM434.188 75.0582V67.0582H458.188V75.0582H434.188ZM426.188 67.0582V43.0582H434.188V67.0582H426.188ZM458.188 67.0582V43.0582H466.188V67.0582H458.188ZM434.188 43.0582V35.0582H458.188V43.0582H434.188ZM490.188 59.0582V43.0582H498.188V59.0582H490.188ZM506.188 75.0582V43.0582H514.188V75.0582H506.188ZM474.188 75.0582V35.0582H490.188V43.0582H482.188V75.0582H474.188ZM498.188 43.0582V35.0582H506.188V43.0582H498.188ZM522.188 75.0582V59.0582H530.188V75.0582H522.188ZM570.188 67.0582V43.0582H578.188V67.0582H570.188ZM554.188 43.0582V35.0582H570.188V43.0582H554.188ZM538.188 75.0582V19.0582H546.188V43.0582H554.188V51.0582H546.188V67.0582H570.188V75.0582H538.188ZM618.188 51.0582V43.0582H626.188V51.0582H618.188ZM586.188 75.0582V35.0582H594.188V43.0582H602.188V51.0582H594.188V75.0582H586.188ZM602.188 43.0582V35.0582H618.188V43.0582H602.188Z" fill="white"/>
<path d="M66.1877 75.0582H61.1877V80.0582H66.1877V75.0582ZM66.1877 43.0582V38.0582H61.1877V43.0582H66.1877ZM74.1877 43.0582H79.1877V38.0582H74.1877V43.0582ZM74.1877 75.0582V80.0582H79.1877V75.0582H74.1877ZM66.1877 35.0582H61.1877V40.0582H66.1877V35.0582ZM66.1877 27.0582V22.0582H61.1877V27.0582H66.1877ZM74.1877 27.0582H79.1877V22.0582H74.1877V27.0582ZM74.1877 35.0582V40.0582H79.1877V35.0582H74.1877ZM34.1877 75.0582H29.1877V80.0582H34.1877V75.0582ZM34.1877 19.0582V14.0582H29.1877V19.0582H34.1877ZM66.1877 19.0582H71.1877V14.0582H66.1877V19.0582ZM66.1877 27.0582V32.0582H71.1877V27.0582H66.1877ZM42.1877 27.0582V22.0582H37.1877V27.0582H42.1877ZM42.1877 35.0582H37.1877V40.0582H42.1877V35.0582ZM66.1877 35.0582H71.1877V30.0582H66.1877V35.0582ZM66.1877 43.0582V48.0582H71.1877V43.0582H66.1877ZM42.1877 43.0582V38.0582H37.1877V43.0582H42.1877ZM42.1877 75.0582V80.0582H47.1877V75.0582H42.1877ZM71.1877 75.0582V43.0582H61.1877V75.0582H71.1877ZM66.1877 48.0582H74.1877V38.0582H66.1877V48.0582ZM69.1877 43.0582V75.0582H79.1877V43.0582H69.1877ZM74.1877 70.0582H66.1877V80.0582H74.1877V70.0582ZM71.1877 35.0582V27.0582H61.1877V35.0582H71.1877ZM66.1877 32.0582H74.1877V22.0582H66.1877V32.0582ZM69.1877 27.0582V35.0582H79.1877V27.0582H69.1877ZM74.1877 30.0582H66.1877V40.0582H74.1877V30.0582ZM39.1877 75.0582V19.0582H29.1877V75.0582H39.1877ZM34.1877 24.0582H66.1877V14.0582H34.1877V24.0582ZM61.1877 19.0582V27.0582H71.1877V19.0582H61.1877ZM66.1877 22.0582H42.1877V32.0582H66.1877V22.0582ZM37.1877 27.0582V35.0582H47.1877V27.0582H37.1877ZM42.1877 40.0582H66.1877V30.0582H42.1877V40.0582ZM61.1877 35.0582V43.0582H71.1877V35.0582H61.1877ZM66.1877 38.0582H42.1877V48.0582H66.1877V38.0582ZM37.1877 43.0582V75.0582H47.1877V43.0582H37.1877ZM42.1877 70.0582H34.1877V80.0582H42.1877V70.0582ZM82.1877 67.0582H77.1877V72.0582H82.1877V67.0582ZM82.1877 59.0582V54.0582H77.1877V59.0582H82.1877ZM90.1877 59.0582H95.1877V54.0582H90.1877V59.0582ZM90.1877 67.0582V72.0582H95.1877V67.0582H90.1877ZM90.1877 75.0582H85.1877V80.0582H90.1877V75.0582ZM90.1877 67.0582V62.0582H85.1877V67.0582H90.1877ZM114.188 67.0582V72.0582H119.188V67.0582H114.188ZM114.188 59.0582H119.188V54.0582H114.188V59.0582ZM90.1877 59.0582H85.1877V64.0582H90.1877V59.0582ZM90.1877 51.0582V46.0582H85.1877V51.0582H90.1877ZM114.188 51.0582V56.0582H119.188V51.0582H114.188ZM114.188 43.0582V38.0582H109.188V43.0582H114.188ZM122.188 43.0582H127.188V38.0582H122.188V43.0582ZM122.188 75.0582V80.0582H127.188V75.0582H122.188ZM90.1877 43.0582H85.1877V48.0582H90.1877V43.0582ZM90.1877 35.0582V30.0582H85.1877V35.0582H90.1877ZM114.188 35.0582H119.188V30.0582H114.188V35.0582ZM114.188 43.0582V48.0582H119.188V43.0582H114.188ZM87.1877 67.0582V59.0582H77.1877V67.0582H87.1877ZM82.1877 64.0582H90.1877V54.0582H82.1877V64.0582ZM85.1877 59.0582V67.0582H95.1877V59.0582H85.1877ZM90.1877 62.0582H82.1877V72.0582H90.1877V62.0582ZM95.1877 75.0582V67.0582H85.1877V75.0582H95.1877ZM90.1877 72.0582H114.188V62.0582H90.1877V72.0582ZM119.188 67.0582V59.0582H109.188V67.0582H119.188ZM114.188 54.0582H90.1877V64.0582H114.188V54.0582ZM95.1877 59.0582V51.0582H85.1877V59.0582H95.1877ZM90.1877 56.0582H114.188V46.0582H90.1877V56.0582ZM119.188 51.0582V43.0582H109.188V51.0582H119.188ZM114.188 48.0582H122.188V38.0582H114.188V48.0582ZM117.188 43.0582V75.0582H127.188V43.0582H117.188ZM122.188 70.0582H90.1877V80.0582H122.188V70.0582ZM95.1877 43.0582V35.0582H85.1877V43.0582H95.1877ZM90.1877 40.0582H114.188V30.0582H90.1877V40.0582ZM109.188 35.0582V43.0582H119.188V35.0582H109.188ZM114.188 38.0582H90.1877V48.0582H114.188V38.0582ZM138.188 75.0582H133.188V80.0582H138.188V75.0582ZM138.188 43.0582H143.188V38.0582H138.188V43.0582ZM130.188 43.0582H125.188V48.0582H130.188V43.0582ZM130.188 35.0582V30.0582H125.188V35.0582H130.188ZM138.188 35.0582V40.0582H143.188V35.0582H138.188ZM138.188 27.0582V22.0582H133.188V27.0582H138.188ZM146.188 27.0582H151.188V22.0582H146.188V27.0582ZM146.188 35.0582H141.188V40.0582H146.188V35.0582ZM162.188 35.0582H167.188V30.0582H162.188V35.0582ZM162.188 43.0582V48.0582H167.188V43.0582H162.188ZM146.188 43.0582V38.0582H141.188V43.0582H146.188ZM146.188 75.0582V80.0582H151.188V75.0582H146.188ZM146.188 27.0582H141.188V32.0582H146.188V27.0582ZM146.188 19.0582V14.0582H141.188V19.0582H146.188ZM162.188 19.0582H167.188V14.0582H162.188V19.0582ZM162.188 27.0582V32.0582H167.188V27.0582H162.188ZM143.188 75.0582V43.0582H133.188V75.0582H143.188ZM138.188 38.0582H130.188V48.0582H138.188V38.0582ZM135.188 43.0582V35.0582H125.188V43.0582H135.188ZM130.188 40.0582H138.188V30.0582H130.188V40.0582ZM143.188 35.0582V27.0582H133.188V35.0582H143.188ZM138.188 32.0582H146.188V22.0582H138.188V32.0582ZM141.188 27.0582V35.0582H151.188V27.0582H141.188ZM146.188 40.0582H162.188V30.0582H146.188V40.0582ZM157.188 35.0582V43.0582H167.188V35.0582H157.188ZM162.188 38.0582H146.188V48.0582H162.188V38.0582ZM141.188 43.0582V75.0582H151.188V43.0582H141.188ZM146.188 70.0582H138.188V80.0582H146.188V70.0582ZM151.188 27.0582V19.0582H141.188V27.0582H151.188ZM146.188 24.0582H162.188V14.0582H146.188V24.0582ZM157.188 19.0582V27.0582H167.188V19.0582H157.188ZM162.188 22.0582H146.188V32.0582H162.188V22.0582ZM170.188 67.0582H165.188V72.0582H170.188V67.0582ZM170.188 59.0582V54.0582H165.188V59.0582H170.188ZM178.188 59.0582H183.188V54.0582H178.188V59.0582ZM178.188 67.0582V72.0582H183.188V67.0582H178.188ZM178.188 75.0582H173.188V80.0582H178.188V75.0582ZM178.188 67.0582V62.0582H173.188V67.0582H178.188ZM202.188 67.0582V72.0582H207.188V67.0582H202.188ZM202.188 59.0582H207.188V54.0582H202.188V59.0582ZM178.188 59.0582H173.188V64.0582H178.188V59.0582ZM178.188 51.0582V46.0582H173.188V51.0582H178.188ZM202.188 51.0582V56.0582H207.188V51.0582H202.188ZM202.188 43.0582V38.0582H197.188V43.0582H202.188ZM210.188 43.0582H215.188V38.0582H210.188V43.0582ZM210.188 75.0582V80.0582H215.188V75.0582H210.188ZM178.188 43.0582H173.188V48.0582H178.188V43.0582ZM178.188 35.0582V30.0582H173.188V35.0582H178.188ZM202.188 35.0582H207.188V30.0582H202.188V35.0582ZM202.188 43.0582V48.0582H207.188V43.0582H202.188ZM175.188 67.0582V59.0582H165.188V67.0582H175.188ZM170.188 64.0582H178.188V54.0582H170.188V64.0582ZM173.188 59.0582V67.0582H183.188V59.0582H173.188ZM178.188 62.0582H170.188V72.0582H178.188V62.0582ZM183.188 75.0582V67.0582H173.188V75.0582H183.188ZM178.188 72.0582H202.188V62.0582H178.188V72.0582ZM207.188 67.0582V59.0582H197.188V67.0582H207.188ZM202.188 54.0582H178.188V64.0582H202.188V54.0582ZM183.188 59.0582V51.0582H173.188V59.0582H183.188ZM178.188 56.0582H202.188V46.0582H178.188V56.0582ZM207.188 51.0582V43.0582H197.188V51.0582H207.188ZM202.188 48.0582H210.188V38.0582H202.188V48.0582ZM205.188 43.0582V75.0582H215.188V43.0582H205.188ZM210.188 70.0582H178.188V80.0582H210.188V70.0582ZM183.188 43.0582V35.0582H173.188V43.0582H183.188ZM178.188 40.0582H202.188V30.0582H178.188V40.0582ZM197.188 35.0582V43.0582H207.188V35.0582H197.188ZM202.188 38.0582H178.188V48.0582H202.188V38.0582ZM218.188 75.0582H213.188V80.0582H218.188V75.0582ZM218.188 19.0582V14.0582H213.188V19.0582H218.188ZM226.188 19.0582H231.188V14.0582H226.188V19.0582ZM226.188 67.0582H221.188V72.0582H226.188V67.0582ZM258.188 67.0582H263.188V62.0582H258.188V67.0582ZM258.188 75.0582V80.0582H263.188V75.0582H258.188ZM223.188 75.0582V19.0582H213.188V75.0582H223.188ZM218.188 24.0582H226.188V14.0582H218.188V24.0582ZM221.188 19.0582V67.0582H231.188V19.0582H221.188ZM226.188 72.0582H258.188V62.0582H226.188V72.0582ZM253.188 67.0582V75.0582H263.188V67.0582H253.188ZM258.188 70.0582H218.188V80.0582H258.188V70.0582ZM266.188 67.0582H261.188V72.0582H266.188V67.0582ZM266.188 35.0582V30.0582H261.188V35.0582H266.188ZM274.188 35.0582H279.188V30.0582H274.188V35.0582ZM274.188 67.0582V72.0582H279.188V67.0582H274.188ZM274.188 75.0582H269.188V80.0582H274.188V75.0582ZM274.188 67.0582V62.0582H269.188V67.0582H274.188ZM298.188 67.0582V72.0582H303.188V67.0582H298.188ZM298.188 35.0582V30.0582H293.188V35.0582H298.188ZM306.188 35.0582H311.188V30.0582H306.188V35.0582ZM306.188 75.0582V80.0582H311.188V75.0582H306.188ZM271.188 67.0582V35.0582H261.188V67.0582H271.188ZM266.188 40.0582H274.188V30.0582H266.188V40.0582ZM269.188 35.0582V67.0582H279.188V35.0582H269.188ZM274.188 62.0582H266.188V72.0582H274.188V62.0582ZM279.188 75.0582V67.0582H269.188V75.0582H279.188ZM274.188 72.0582H298.188V62.0582H274.188V72.0582ZM303.188 67.0582V35.0582H293.188V67.0582H303.188ZM298.188 40.0582H306.188V30.0582H298.188V40.0582ZM301.188 35.0582V75.0582H311.188V35.0582H301.188ZM306.188 70.0582H274.188V80.0582H306.188V70.0582ZM322.188 75.0582H317.188V80.0582H322.188V75.0582ZM322.188 67.0582V62.0582H317.188V67.0582H322.188ZM346.188 67.0582H351.188V62.0582H346.188V67.0582ZM346.188 75.0582V80.0582H351.188V75.0582H346.188ZM346.188 67.0582H341.188V72.0582H346.188V67.0582ZM346.188 59.0582V54.0582H341.188V59.0582H346.188ZM354.188 59.0582H359.188V54.0582H354.188V59.0582ZM354.188 67.0582V72.0582H359.188V67.0582H354.188ZM314.188 67.0582H309.188V72.0582H314.188V67.0582ZM314.188 43.0582V38.0582H309.188V43.0582H314.188ZM322.188 43.0582H327.188V38.0582H322.188V43.0582ZM322.188 67.0582V72.0582H327.188V67.0582H322.188ZM346.188 51.0582H341.188V56.0582H346.188V51.0582ZM346.188 43.0582V38.0582H341.188V43.0582H346.188ZM354.188 43.0582H359.188V38.0582H354.188V43.0582ZM354.188 51.0582V56.0582H359.188V51.0582H354.188ZM322.188 43.0582H317.188V48.0582H322.188V43.0582ZM322.188 35.0582V30.0582H317.188V35.0582H322.188ZM346.188 35.0582H351.188V30.0582H346.188V35.0582ZM346.188 43.0582V48.0582H351.188V43.0582H346.188ZM327.188 75.0582V67.0582H317.188V75.0582H327.188ZM322.188 72.0582H346.188V62.0582H322.188V72.0582ZM341.188 67.0582V75.0582H351.188V67.0582H341.188ZM346.188 70.0582H322.188V80.0582H346.188V70.0582ZM351.188 67.0582V59.0582H341.188V67.0582H351.188ZM346.188 64.0582H354.188V54.0582H346.188V64.0582ZM349.188 59.0582V67.0582H359.188V59.0582H349.188ZM354.188 62.0582H346.188V72.0582H354.188V62.0582ZM319.188 67.0582V43.0582H309.188V67.0582H319.188ZM314.188 48.0582H322.188V38.0582H314.188V48.0582ZM317.188 43.0582V67.0582H327.188V43.0582H317.188ZM322.188 62.0582H314.188V72.0582H322.188V62.0582ZM351.188 51.0582V43.0582H341.188V51.0582H351.188ZM346.188 48.0582H354.188V38.0582H346.188V48.0582ZM349.188 43.0582V51.0582H359.188V43.0582H349.188ZM354.188 46.0582H346.188V56.0582H354.188V46.0582ZM327.188 43.0582V35.0582H317.188V43.0582H327.188ZM322.188 40.0582H346.188V30.0582H322.188V40.0582ZM341.188 35.0582V43.0582H351.188V35.0582H341.188ZM346.188 38.0582H322.188V48.0582H346.188V38.0582ZM362.188 75.0582H357.188V80.0582H362.188V75.0582ZM362.188 59.0582V54.0582H357.188V59.0582H362.188ZM370.188 59.0582H375.188V54.0582H370.188V59.0582ZM370.188 75.0582V80.0582H375.188V75.0582H370.188ZM367.188 75.0582V59.0582H357.188V75.0582H367.188ZM362.188 64.0582H370.188V54.0582H362.188V64.0582ZM365.188 59.0582V75.0582H375.188V59.0582H365.188ZM370.188 70.0582H362.188V80.0582H370.188V70.0582ZM386.188 75.0582H381.188V80.0582H386.188V75.0582ZM386.188 67.0582V62.0582H381.188V67.0582H386.188ZM410.188 67.0582H415.188V62.0582H410.188V67.0582ZM410.188 75.0582V80.0582H415.188V75.0582H410.188ZM410.188 67.0582H405.188V72.0582H410.188V67.0582ZM410.188 59.0582V54.0582H405.188V59.0582H410.188ZM418.188 59.0582H423.188V54.0582H418.188V59.0582ZM418.188 67.0582V72.0582H423.188V67.0582H418.188ZM378.188 67.0582H373.188V72.0582H378.188V67.0582ZM378.188 43.0582V38.0582H373.188V43.0582H378.188ZM386.188 43.0582H391.188V38.0582H386.188V43.0582ZM386.188 67.0582V72.0582H391.188V67.0582H386.188ZM410.188 51.0582H405.188V56.0582H410.188V51.0582ZM410.188 43.0582V38.0582H405.188V43.0582H410.188ZM418.188 43.0582H423.188V38.0582H418.188V43.0582ZM418.188 51.0582V56.0582H423.188V51.0582H418.188ZM386.188 43.0582H381.188V48.0582H386.188V43.0582ZM386.188 35.0582V30.0582H381.188V35.0582H386.188ZM410.188 35.0582H415.188V30.0582H410.188V35.0582ZM410.188 43.0582V48.0582H415.188V43.0582H410.188ZM391.188 75.0582V67.0582H381.188V75.0582H391.188ZM386.188 72.0582H410.188V62.0582H386.188V72.0582ZM405.188 67.0582V75.0582H415.188V67.0582H405.188ZM410.188 70.0582H386.188V80.0582H410.188V70.0582ZM415.188 67.0582V59.0582H405.188V67.0582H415.188ZM410.188 64.0582H418.188V54.0582H410.188V64.0582ZM413.188 59.0582V67.0582H423.188V59.0582H413.188ZM418.188 62.0582H410.188V72.0582H418.188V62.0582ZM383.188 67.0582V43.0582H373.188V67.0582H383.188ZM378.188 48.0582H386.188V38.0582H378.188V48.0582ZM381.188 43.0582V67.0582H391.188V43.0582H381.188ZM386.188 62.0582H378.188V72.0582H386.188V62.0582ZM415.188 51.0582V43.0582H405.188V51.0582H415.188ZM410.188 48.0582H418.188V38.0582H410.188V48.0582ZM413.188 43.0582V51.0582H423.188V43.0582H413.188ZM418.188 46.0582H410.188V56.0582H418.188V46.0582ZM391.188 43.0582V35.0582H381.188V43.0582H391.188ZM386.188 40.0582H410.188V30.0582H386.188V40.0582ZM405.188 35.0582V43.0582H415.188V35.0582H405.188ZM410.188 38.0582H386.188V48.0582H410.188V38.0582ZM434.188 75.0582H429.188V80.0582H434.188V75.0582ZM434.188 67.0582V62.0582H429.188V67.0582H434.188ZM458.188 67.0582H463.188V62.0582H458.188V67.0582ZM458.188 75.0582V80.0582H463.188V75.0582H458.188ZM426.188 67.0582H421.188V72.0582H426.188V67.0582ZM426.188 43.0582V38.0582H421.188V43.0582H426.188ZM434.188 43.0582H439.188V38.0582H434.188V43.0582ZM434.188 67.0582V72.0582H439.188V67.0582H434.188ZM458.188 67.0582H453.188V72.0582H458.188V67.0582ZM458.188 43.0582V38.0582H453.188V43.0582H458.188ZM466.188 43.0582H471.188V38.0582H466.188V43.0582ZM466.188 67.0582V72.0582H471.188V67.0582H466.188ZM434.188 43.0582H429.188V48.0582H434.188V43.0582ZM434.188 35.0582V30.0582H429.188V35.0582H434.188ZM458.188 35.0582H463.188V30.0582H458.188V35.0582ZM458.188 43.0582V48.0582H463.188V43.0582H458.188ZM439.188 75.0582V67.0582H429.188V75.0582H439.188ZM434.188 72.0582H458.188V62.0582H434.188V72.0582ZM453.188 67.0582V75.0582H463.188V67.0582H453.188ZM458.188 70.0582H434.188V80.0582H458.188V70.0582ZM431.188 67.0582V43.0582H421.188V67.0582H431.188ZM426.188 48.0582H434.188V38.0582H426.188V48.0582ZM429.188 43.0582V67.0582H439.188V43.0582H429.188ZM434.188 62.0582H426.188V72.0582H434.188V62.0582ZM463.188 67.0582V43.0582H453.188V67.0582H463.188ZM458.188 48.0582H466.188V38.0582H458.188V48.0582ZM461.188 43.0582V67.0582H471.188V43.0582H461.188ZM466.188 62.0582H458.188V72.0582H466.188V62.0582ZM439.188 43.0582V35.0582H429.188V43.0582H439.188ZM434.188 40.0582H458.188V30.0582H434.188V40.0582ZM453.188 35.0582V43.0582H463.188V35.0582H453.188ZM458.188 38.0582H434.188V48.0582H458.188V38.0582ZM490.188 59.0582H485.188V64.0582H490.188V59.0582ZM490.188 43.0582V38.0582H485.188V43.0582H490.188ZM498.188 43.0582H503.188V38.0582H498.188V43.0582ZM498.188 59.0582V64.0582H503.188V59.0582H498.188ZM506.188 75.0582H501.188V80.0582H506.188V75.0582ZM506.188 43.0582V38.0582H501.188V43.0582H506.188ZM514.188 43.0582H519.188V38.0582H514.188V43.0582ZM514.188 75.0582V80.0582H519.188V75.0582H514.188ZM474.188 75.0582H469.188V80.0582H474.188V75.0582ZM474.188 35.0582V30.0582H469.188V35.0582H474.188ZM490.188 35.0582H495.188V30.0582H490.188V35.0582ZM490.188 43.0582V48.0582H495.188V43.0582H490.188ZM482.188 43.0582V38.0582H477.188V43.0582H482.188ZM482.188 75.0582V80.0582H487.188V75.0582H482.188ZM498.188 43.0582H493.188V48.0582H498.188V43.0582ZM498.188 35.0582V30.0582H493.188V35.0582H498.188ZM506.188 35.0582H511.188V30.0582H506.188V35.0582ZM506.188 43.0582V48.0582H511.188V43.0582H506.188ZM495.188 59.0582V43.0582H485.188V59.0582H495.188ZM490.188 48.0582H498.188V38.0582H490.188V48.0582ZM493.188 43.0582V59.0582H503.188V43.0582H493.188ZM498.188 54.0582H490.188V64.0582H498.188V54.0582ZM511.188 75.0582V43.0582H501.188V75.0582H511.188ZM506.188 48.0582H514.188V38.0582H506.188V48.0582ZM509.188 43.0582V75.0582H519.188V43.0582H509.188ZM514.188 70.0582H506.188V80.0582H514.188V70.0582ZM479.188 75.0582V35.0582H469.188V75.0582H479.188ZM474.188 40.0582H490.188V30.0582H474.188V40.0582ZM485.188 35.0582V43.0582H495.188V35.0582H485.188ZM490.188 38.0582H482.188V48.0582H490.188V38.0582ZM477.188 43.0582V75.0582H487.188V43.0582H477.188ZM482.188 70.0582H474.188V80.0582H482.188V70.0582ZM503.188 43.0582V35.0582H493.188V43.0582H503.188ZM498.188 40.0582H506.188V30.0582H498.188V40.0582ZM501.188 35.0582V43.0582H511.188V35.0582H501.188ZM506.188 38.0582H498.188V48.0582H506.188V38.0582ZM522.188 75.0582H517.188V80.0582H522.188V75.0582ZM522.188 59.0582V54.0582H517.188V59.0582H522.188ZM530.188 59.0582H535.188V54.0582H530.188V59.0582ZM530.188 75.0582V80.0582H535.188V75.0582H530.188ZM527.188 75.0582V59.0582H517.188V75.0582H527.188ZM522.188 64.0582H530.188V54.0582H522.188V64.0582ZM525.188 59.0582V75.0582H535.188V59.0582H525.188ZM530.188 70.0582H522.188V80.0582H530.188V70.0582ZM570.188 67.0582H565.188V72.0582H570.188V67.0582ZM570.188 43.0582V38.0582H565.188V43.0582H570.188ZM578.188 43.0582H583.188V38.0582H578.188V43.0582ZM578.188 67.0582V72.0582H583.188V67.0582H578.188ZM554.188 43.0582H549.188V48.0582H554.188V43.0582ZM554.188 35.0582V30.0582H549.188V35.0582H554.188ZM570.188 35.0582H575.188V30.0582H570.188V35.0582ZM570.188 43.0582V48.0582H575.188V43.0582H570.188ZM538.188 75.0582H533.188V80.0582H538.188V75.0582ZM538.188 19.0582V14.0582H533.188V19.0582H538.188ZM546.188 19.0582H551.188V14.0582H546.188V19.0582ZM546.188 43.0582H541.188V48.0582H546.188V43.0582ZM554.188 43.0582H559.188V38.0582H554.188V43.0582ZM554.188 51.0582V56.0582H559.188V51.0582H554.188ZM546.188 51.0582V46.0582H541.188V51.0582H546.188ZM546.188 67.0582H541.188V72.0582H546.188V67.0582ZM570.188 67.0582H575.188V62.0582H570.188V67.0582ZM570.188 75.0582V80.0582H575.188V75.0582H570.188ZM575.188 67.0582V43.0582H565.188V67.0582H575.188ZM570.188 48.0582H578.188V38.0582H570.188V48.0582ZM573.188 43.0582V67.0582H583.188V43.0582H573.188ZM578.188 62.0582H570.188V72.0582H578.188V62.0582ZM559.188 43.0582V35.0582H549.188V43.0582H559.188ZM554.188 40.0582H570.188V30.0582H554.188V40.0582ZM565.188 35.0582V43.0582H575.188V35.0582H565.188ZM570.188 38.0582H554.188V48.0582H570.188V38.0582ZM543.188 75.0582V19.0582H533.188V75.0582H543.188ZM538.188 24.0582H546.188V14.0582H538.188V24.0582ZM541.188 19.0582V43.0582H551.188V19.0582H541.188ZM546.188 48.0582H554.188V38.0582H546.188V48.0582ZM549.188 43.0582V51.0582H559.188V43.0582H549.188ZM554.188 46.0582H546.188V56.0582H554.188V46.0582ZM541.188 51.0582V67.0582H551.188V51.0582H541.188ZM546.188 72.0582H570.188V62.0582H546.188V72.0582ZM565.188 67.0582V75.0582H575.188V67.0582H565.188ZM570.188 70.0582H538.188V80.0582H570.188V70.0582ZM618.188 51.0582H613.188V56.0582H618.188V51.0582ZM618.188 43.0582V38.0582H613.188V43.0582H618.188ZM626.188 43.0582H631.188V38.0582H626.188V43.0582ZM626.188 51.0582V56.0582H631.188V51.0582H626.188ZM586.188 75.0582H581.188V80.0582H586.188V75.0582ZM586.188 35.0582V30.0582H581.188V35.0582H586.188ZM594.188 35.0582H599.188V30.0582H594.188V35.0582ZM594.188 43.0582H589.188V48.0582H594.188V43.0582ZM602.188 43.0582H607.188V38.0582H602.188V43.0582ZM602.188 51.0582V56.0582H607.188V51.0582H602.188ZM594.188 51.0582V46.0582H589.188V51.0582H594.188ZM594.188 75.0582V80.0582H599.188V75.0582H594.188ZM602.188 43.0582H597.188V48.0582H602.188V43.0582ZM602.188 35.0582V30.0582H597.188V35.0582H602.188ZM618.188 35.0582H623.188V30.0582H618.188V35.0582ZM618.188 43.0582V48.0582H623.188V43.0582H618.188ZM623.188 51.0582V43.0582H613.188V51.0582H623.188ZM618.188 48.0582H626.188V38.0582H618.188V48.0582ZM621.188 43.0582V51.0582H631.188V43.0582H621.188ZM626.188 46.0582H618.188V56.0582H626.188V46.0582ZM591.188 75.0582V35.0582H581.188V75.0582H591.188ZM586.188 40.0582H594.188V30.0582H586.188V40.0582ZM589.188 35.0582V43.0582H599.188V35.0582H589.188ZM594.188 48.0582H602.188V38.0582H594.188V48.0582ZM597.188 43.0582V51.0582H607.188V43.0582H597.188ZM602.188 46.0582H594.188V56.0582H602.188V46.0582ZM589.188 51.0582V75.0582H599.188V51.0582H589.188ZM594.188 70.0582H586.188V80.0582H594.188V70.0582ZM607.188 43.0582V35.0582H597.188V43.0582H607.188ZM602.188 40.0582H618.188V30.0582H602.188V40.0582ZM613.188 35.0582V43.0582H623.188V35.0582H613.188ZM618.188 38.0582H602.188V48.0582H618.188V38.0582Z" fill="black" fill-opacity="0.2" mask="url(#path-2-outside-1_21_15)"/>
</svg>
