<svg width="53" height="53" viewBox="0 0 53 53" fill="none" xmlns="http://www.w3.org/2000/svg">
<g opacity="0.7">
<path d="M50.3944 6.6652C48.3102 8.13528 46.0027 9.25966 43.5606 9.99503C42.2498 8.48792 40.5079 7.41972 38.5702 6.9349C36.6326 6.45008 34.5929 6.57204 32.7268 7.28427C30.8608 7.9965 29.2585 9.26465 28.1366 10.9172C27.0148 12.5697 26.4276 14.527 26.4544 16.5241V18.7005C22.6297 18.7997 18.8398 17.9514 15.4224 16.2313C12.0049 14.5112 9.06589 11.9726 6.86707 8.84156C6.86707 8.84156 -1.83839 28.4288 17.7489 37.1343C13.2667 40.1768 7.9273 41.7023 2.51434 41.487C22.1016 52.3688 46.0416 41.487 46.0416 16.4588C46.0396 15.8526 45.9813 15.2479 45.8675 14.6525C48.0887 12.4619 49.6562 9.69625 50.3944 6.6652Z" stroke="#EEEEEE" stroke-width="2" stroke-linecap="round" stroke-linejoin="round"/>
</g>
</svg>
