<svg width="55" height="55" viewBox="0 0 55 55" fill="none" xmlns="http://www.w3.org/2000/svg">
<g opacity="0.7">
<path d="M51.1036 14.9584C50.8351 13.8858 50.2883 12.903 49.5185 12.1094C48.7486 11.3157 47.783 10.7393 46.719 10.4382C42.8317 9.48901 27.2824 9.48901 27.2824 9.48901C27.2824 9.48901 11.7331 9.48901 7.8458 10.5286C6.78186 10.8297 5.8162 11.4061 5.04635 12.1998C4.2765 12.9934 3.72973 13.9762 3.46126 15.0488C2.74982 18.9939 2.40182 22.9959 2.42163 27.0046C2.39627 31.0434 2.74429 35.076 3.46126 39.0507C3.75724 40.09 4.31626 41.0354 5.08431 41.7955C5.85237 42.5557 6.8035 43.1049 7.8458 43.3901C11.7331 44.4297 27.2824 44.4297 27.2824 44.4297C27.2824 44.4297 42.8317 44.4297 46.719 43.3901C47.783 43.0891 48.7486 42.5126 49.5185 41.719C50.2883 40.9253 50.8351 39.9425 51.1036 38.8699C51.8095 34.9546 52.1575 30.983 52.1432 27.0046C52.1685 22.9657 51.8205 18.9332 51.1036 14.9584Z" stroke="#EEEEEE" stroke-width="2" stroke-linecap="round" stroke-linejoin="round"/>
<path d="M22.1973 34.3949L35.1927 27.0044L22.1973 19.614V34.3949Z" stroke="#EEEEEE" stroke-width="2" stroke-linecap="round" stroke-linejoin="round"/>
</g>
</svg>
